<?xml version="1.0" encoding="UTF-8" standalone="no"?>
<!-- Created with Inkscape (http://www.inkscape.org/) -->

<svg
   xmlns:dc="http://purl.org/dc/elements/1.1/"
   xmlns:cc="http://creativecommons.org/ns#"
   xmlns:rdf="http://www.w3.org/1999/02/22-rdf-syntax-ns#"
   xmlns:svg="http://www.w3.org/2000/svg"
   xmlns="http://www.w3.org/2000/svg"
   xmlns:sodipodi="http://sodipodi.sourceforge.net/DTD/sodipodi-0.dtd"
   xmlns:inkscape="http://www.inkscape.org/namespaces/inkscape"
   width="48"
   height="48"
   id="svg2"
   version="1.1"
   inkscape:version="0.48.4 r9939"
   sodipodi:docname="logo.svg"
   inkscape:export-filename="/data/documents/classes/cis4301/project/logo.png"
   inkscape:export-xdpi="120"
   inkscape:export-ydpi="120">
  <defs
     id="defs4">
    <marker
       inkscape:stockid="Arrow2Sstart"
       orient="auto"
       refY="0.0"
       refX="0.0"
       id="Arrow2Sstart"
       style="overflow:visible">
      <path
         id="path3897"
         style="fill-rule:evenodd;stroke-width:0.62500000;stroke-linejoin:round"
         d="M 8.7185878,4.0337352 L -2.2072895,0.016013256 L 8.7185884,-4.0017078 C 6.9730900,-1.6296469 6.9831476,1.6157441 8.7185878,4.0337352 z "
         transform="scale(0.3) translate(-2.3,0)" />
    </marker>
    <marker
       inkscape:stockid="Arrow1Send"
       orient="auto"
       refY="0.0"
       refX="0.0"
       id="Arrow1Send"
       style="overflow:visible;">
      <path
         id="path3882"
         d="M 0.0,0.0 L 5.0,-5.0 L -12.5,0.0 L 5.0,5.0 L 0.0,0.0 z "
         style="fill-rule:evenodd;stroke:#000000;stroke-width:1.0pt;"
         transform="scale(0.2) rotate(180) translate(6,0)" />
    </marker>
  </defs>
  <sodipodi:namedview
     id="base"
     pagecolor="#0000ff"
     bordercolor="#666666"
     borderopacity="1.0"
     inkscape:pageopacity="0.20392157"
     inkscape:pageshadow="2"
     inkscape:zoom="7.2063512"
     inkscape:cx="17.983462"
     inkscape:cy="20.558734"
     inkscape:document-units="px"
     inkscape:current-layer="layer1"
     showgrid="true"
     inkscape:window-width="1598"
     inkscape:window-height="879"
     inkscape:window-x="0"
     inkscape:window-y="19"
     inkscape:window-maximized="0"
     inkscape:snap-global="true">
    <inkscape:grid
       type="xygrid"
       id="grid2985"
       empspacing="4"
       visible="true"
       enabled="true"
       snapvisiblegridlinesonly="true"
       spacingx="2px"
       spacingy="2px" />
  </sodipodi:namedview>
  <metadata
     id="metadata7">
    <rdf:RDF>
      <cc:Work
         rdf:about="">
        <dc:format>image/svg+xml</dc:format>
        <dc:type
           rdf:resource="http://purl.org/dc/dcmitype/StillImage" />
        <dc:title></dc:title>
      </cc:Work>
    </rdf:RDF>
  </metadata>
  <g
     inkscape:label="Layer 1"
     inkscape:groupmode="layer"
     id="layer1"
     transform="translate(0,-1004.3622)">
    <path
       style="fill:#000000;stroke:#000000;stroke-width:0;stroke-miterlimit:4;stroke-opacity:1;stroke-dasharray:none;stroke-dashoffset:0"
       mask="none"
       clip-path="none"
       d="M 23.96875 10 C 18.529387 10 14.125 16.268014 14.125 24 C 14.125 31.731986 18.529387 38 23.96875 38 C 27.310411 38 30.250619 35.617481 32.03125 32 L 24 32 L 33.5625 27.21875 C 33.73478 26.181813 33.8125 25.111751 33.8125 24 C 33.8125 16.268014 29.408113 10 23.96875 10 z M 23.96875 11.28125 C 27.682475 11.28125 30.70246 15.57015 30.71875 20.84375 L 17.25 20.84375 C 17.266294 15.57015 20.255025 11.28125 23.96875 11.28125 z "
       transform="translate(0,1004.3622)"
       id="path3757" />
    <path
       sodipodi:type="arc"
       style="fill:#000000;stroke:#ff0000;stroke-width:0;stroke-miterlimit:4;stroke-opacity:1;stroke-dasharray:none;stroke-dashoffset:0"
       id="path3837"
       sodipodi:cx="24"
       sodipodi:cy="20"
       sodipodi:rx="4"
       sodipodi:ry="4"
       d="m 28,20 a 4,4 0 1 1 -8,0 4,4 0 1 1 8,0 z"
       transform="translate(0,1006.3622)" />
    <rect
       style="fill:#000000;stroke:#ff0000;stroke-width:0;stroke-miterlimit:4;stroke-opacity:1;stroke-dasharray:none;stroke-dashoffset:0"
       id="rect3844"
       width="1.8746552"
       height="2.244653"
       x="23.063192"
       y="16.624191"
       transform="translate(0,1004.3622)" />
    <rect
       y="1020.7073"
       x="23.063192"
       height="2.5237226"
       width="1.8746552"
       id="rect3846"
       style="fill:#000000;stroke:#ff0000;stroke-width:0;stroke-miterlimit:4;stroke-opacity:1;stroke-dasharray:none;stroke-dashoffset:0" />
    <rect
       style="fill:#000000;stroke:#ff0000;stroke-width:0;stroke-miterlimit:4;stroke-opacity:1;stroke-dasharray:none;stroke-dashoffset:0"
       id="rect3848"
       width="1.8746552"
       height="2.244653"
       x="762.13452"
       y="681.07495"
       transform="matrix(0.68614815,0.72746183,-0.72746183,0.68614815,0,0)" />
    <rect
       transform="matrix(-0.68614815,0.72746183,0.72746183,0.68614815,0,0)"
       y="716.06323"
       x="729.1673"
       height="2.244653"
       width="1.8746552"
       id="rect3850"
       style="fill:#000000;stroke:#ff0000;stroke-width:0;stroke-miterlimit:4;stroke-opacity:1;stroke-dasharray:none;stroke-dashoffset:0" />
    <path
       style="fill:none;stroke:#000000;stroke-width:0.92582011px;stroke-linecap:butt;stroke-linejoin:miter;stroke-opacity:1"
       d="m 33.928571,1034.3622 5.142858,0"
       id="path3855"
       inkscape:connector-curvature="0"
       sodipodi:nodetypes="cc" />
    <path
       style="fill:none;stroke:#000000;stroke-width:1px;stroke-linecap:butt;stroke-linejoin:miter;stroke-opacity:1"
       d="m 34,32 4,4"
       id="path3857"
       inkscape:connector-curvature="0"
       transform="translate(0,1004.3622)" />
    <path
       style="fill:none;stroke:#000000;stroke-width:1px;stroke-linecap:butt;stroke-linejoin:miter;stroke-opacity:1"
       d="m 34,28 4,-4"
       id="path3859"
       inkscape:connector-curvature="0"
       transform="translate(0,1004.3622)" />
    <path
       style="fill:none;stroke:#000000;stroke-width:0.84991413000000005px;stroke-linecap:butt;stroke-linejoin:miter;stroke-opacity:1;marker-end:url(#Arrow1Send)"
       d="M 3.6700498 35.937 L 3.6700498 35.937 C 9.9393049 47.311524 35.458726 47.822469 43.457421 37.469836 "
       id="path4908"
       transform="translate(0,1004.3622)" />
    <path
       style="fill:none;stroke:#000000;stroke-width:0.84991413000000005px;stroke-linecap:butt;stroke-linejoin:miter;stroke-opacity:1;marker-end:url(#Arrow1Send)"
       d="M 20.002517 4.3176 C 11.276986 7.1548822 3.0942118 18.380567 2.236411 27.954915 "
       id="path4499"
       transform="translate(0,1004.3622)" />
    <path
       id="path5280"
       d="m 27.87546,1008.6798 c 8.725531,2.8373 16.908305,14.063 17.766106,23.6373"
       style="fill:none;stroke:#000000;stroke-width:0.84991413000000005px;stroke-linecap:butt;stroke-linejoin:miter;stroke-opacity:1;marker-end:none;marker-start:url(#Arrow2Sstart)"
       inkscape:connector-curvature="0" />
    <rect
       style="fill:#cccccc;stroke:#ff0000;stroke-width:0;stroke-miterlimit:4;stroke-opacity:1;stroke-dasharray:none;stroke-dashoffset:0;opacity:0"
       id="rect6198"
       width="48"
       height="48"
       x="0"
       y="0"
       transform="translate(0,1004.3622)" />
  </g>
</svg>
